# xmcd
#
# Track frame offsets: 
#        300
#        24744
#        52639
#        81384
#        121335
#        144183
#        162027
#        195773
#
# Disc length: 2918 seconds
#
# Revision: 0
# Processed by: cddbd v1.5.2PL0 Copyright (c) Steve Scherf et al.
# Submitted via: ExactAudioCopy v1.0b1
#
DISCID=570b6208
DTITLE=Jimmy Dawkins - B Phur Real
DYEAR=2006
DGENRE=Chicago Blues
TTITLE0=Two Timin' Lover
TTITLE1=Lonesome Blues
TTITLE2=If It Ain't Love
TTITLE3=B Phur Real
TTITLE4=Walk With Me
TTITLE5=Begging Business
TTITLE6=You Got It, Baby
TTITLE7=Can't Hide My Love
EXTD=
EXTT0=
EXTT1=
EXTT2=
EXTT3=
EXTT4=
EXTT5=
EXTT6=
EXTT7=
PLAYORDER=
